<?xml version="1.0" encoding="UTF-8" standalone="no"?>
<!DOCTYPE svg PUBLIC "-//W3C//DTD SVG 1.1//EN"
 "http://www.w3.org/Graphics/SVG/1.1/DTD/svg11.dtd">
<!-- Generated by graphviz version 2.40.1 (20161225.0304)
 -->
<!-- Title: %3 Pages: 1 -->
<svg width="258pt" height="83pt"
 viewBox="0.00 0.00 257.73 82.95" xmlns="http://www.w3.org/2000/svg" xmlns:xlink="http://www.w3.org/1999/xlink">
<g id="graph0" class="graph" transform="scale(1 1) rotate(0) translate(4 78.9518)">
<title>%3</title>
<polygon fill="#ffffff" stroke="transparent" points="-4,4 -4,-78.9518 253.73,-78.9518 253.73,4 -4,4"/>
<!-- Private -->
<g id="node1" class="node">
<title>Private</title>
<ellipse fill="none" stroke="#000000" cx="37.5659" cy="-56.9518" rx="37.632" ry="18"/>
<text text-anchor="middle" x="37.5659" y="-52.3518" font-family="Times,serif" font-size="14.00" fill="#000000">Private</text>
</g>
<!-- Published -->
<g id="node2" class="node">
<title>Published</title>
<ellipse fill="none" stroke="#000000" cx="201.431" cy="-56.9518" rx="48.099" ry="18"/>
<text text-anchor="middle" x="201.431" y="-52.3518" font-family="Times,serif" font-size="14.00" fill="#000000">Published</text>
</g>
<!-- Private&#45;&gt;Published -->
<g id="edge1" class="edge">
<title>Private&#45;&gt;Published</title>
<path fill="none" stroke="#000000" d="M75.1599,-56.9518C95.2352,-56.9518 120.3926,-56.9518 142.9575,-56.9518"/>
<polygon fill="#000000" stroke="#000000" points="143.1152,-60.4519 153.1152,-56.9518 143.1152,-53.4519 143.1152,-60.4519"/>
<text text-anchor="middle" x="114.1319" y="-60.3518" font-family="Times,serif" font-size="14.00" fill="#000000">Publish</text>
</g>
<!-- Published&#45;&gt;Private -->
<g id="edge2" class="edge">
<title>Published&#45;&gt;Private</title>
<path fill="none" stroke="#000000" d="M185.8976,-39.7502C173.5311,-27.4221 155.0425,-11.8286 135.1319,-4.9518 117.4879,1.1421 110.4936,1.9049 93.1319,-4.9518 79.0307,-10.5208 66.4067,-21.5452 56.7687,-32.0154"/>
<polygon fill="#000000" stroke="#000000" points="53.9129,-29.9663 50.0056,-39.8144 59.2014,-34.5524 53.9129,-29.9663"/>
<text text-anchor="middle" x="114.1319" y="-8.3518" font-family="Times,serif" font-size="14.00" fill="#000000">Retract</text>
</g>
</g>
</svg>
