<?xml version="1.0" encoding="UTF-8" standalone="no"?>
<!DOCTYPE svg PUBLIC "-//W3C//DTD SVG 1.1//EN"
 "http://www.w3.org/Graphics/SVG/1.1/DTD/svg11.dtd">
<!-- Generated by graphviz version 2.40.1 (20161225.0304)
 -->
<!-- Title: %3 Pages: 1 -->
<svg width="241pt" height="497pt"
 viewBox="0.00 0.00 240.82 497.00" xmlns="http://www.w3.org/2000/svg" xmlns:xlink="http://www.w3.org/1999/xlink">
<g id="graph0" class="graph" transform="scale(1 1) rotate(0) translate(4 493)">
<title>%3</title>
<polygon fill="#ffffff" stroke="transparent" points="-4,4 -4,-493 236.8224,-493 236.8224,4 -4,4"/>
<!-- New Filing -->
<g id="node1" class="node">
<title>New Filing</title>
<ellipse fill="none" stroke="#000000" cx="179.1568" cy="-471" rx="53.8318" ry="18"/>
<text text-anchor="middle" x="179.1568" y="-466.4" font-family="Times,serif" font-size="14.00" fill="#000000">New Filing</text>
</g>
<!-- Submitted -->
<g id="node2" class="node">
<title>Submitted</title>
<ellipse fill="none" stroke="#000000" cx="179.1568" cy="-398" rx="49.7818" ry="18"/>
<text text-anchor="middle" x="179.1568" y="-393.4" font-family="Times,serif" font-size="14.00" fill="#000000">Submitted</text>
</g>
<!-- New Filing&#45;&gt;Submitted -->
<g id="edge1" class="edge">
<title>New Filing&#45;&gt;Submitted</title>
<path fill="none" stroke="#000000" d="M179.1568,-452.9551C179.1568,-444.8828 179.1568,-435.1764 179.1568,-426.1817"/>
<polygon fill="#000000" stroke="#000000" points="182.6569,-426.0903 179.1568,-416.0904 175.6569,-426.0904 182.6569,-426.0903"/>
</g>
<!-- Pending Scan -->
<g id="node3" class="node">
<title>Pending Scan</title>
<ellipse fill="none" stroke="#000000" cx="134.1568" cy="-310" rx="62.2728" ry="18"/>
<text text-anchor="middle" x="134.1568" y="-305.4" font-family="Times,serif" font-size="14.00" fill="#000000">Pending Scan</text>
</g>
<!-- Submitted&#45;&gt;Pending Scan -->
<g id="edge2" class="edge">
<title>Submitted&#45;&gt;Pending Scan</title>
<path fill="none" stroke="#000000" d="M167.715,-380.3241C164.1662,-374.573 160.3515,-368.0992 157.1568,-362 153.0539,-354.1668 149.0062,-345.4486 145.4774,-337.4239"/>
<polygon fill="#000000" stroke="#000000" points="148.6275,-335.8894 141.4617,-328.0855 142.1969,-338.6548 148.6275,-335.8894"/>
<text text-anchor="middle" x="183.6568" y="-349.4" font-family="Times,serif" font-size="14.00" fill="#000000">Scan File</text>
</g>
<!-- Rejected -->
<g id="node4" class="node">
<title>Rejected</title>
<ellipse fill="none" stroke="#000000" cx="187.1568" cy="-18" rx="44.0494" ry="18"/>
<text text-anchor="middle" x="187.1568" y="-13.4" font-family="Times,serif" font-size="14.00" fill="#000000">Rejected</text>
</g>
<!-- Pending Scan&#45;&gt;Rejected -->
<g id="edge3" class="edge">
<title>Pending Scan&#45;&gt;Rejected</title>
<path fill="none" stroke="#000000" d="M155.6074,-292.8929C169.9314,-279.4216 186.1568,-259.2511 186.1568,-237 186.1568,-237 186.1568,-237 186.1568,-91 186.1568,-76.2982 186.3621,-59.9325 186.5867,-46.4289"/>
<polygon fill="#000000" stroke="#000000" points="190.0883,-46.3602 186.7673,-36.2994 183.0895,-46.2354 190.0883,-46.3602"/>
</g>
<!-- Scan Clean -->
<g id="node5" class="node">
<title>Scan Clean</title>
<ellipse fill="none" stroke="#000000" cx="98.1568" cy="-237" rx="53.8318" ry="18"/>
<text text-anchor="middle" x="98.1568" y="-232.4" font-family="Times,serif" font-size="14.00" fill="#000000">Scan Clean</text>
</g>
<!-- Pending Scan&#45;&gt;Scan Clean -->
<g id="edge4" class="edge">
<title>Pending Scan&#45;&gt;Scan Clean</title>
<path fill="none" stroke="#000000" d="M125.2579,-291.9551C121.1164,-283.5569 116.1025,-273.39 111.5192,-264.096"/>
<polygon fill="#000000" stroke="#000000" points="114.5154,-262.2581 106.9533,-254.8374 108.2372,-265.3541 114.5154,-262.2581"/>
</g>
<!-- Rejected&#45;&gt;Submitted -->
<g id="edge8" class="edge">
<title>Rejected&#45;&gt;Submitted</title>
<path fill="none" stroke="#000000" d="M201.5679,-35.0732C211.9569,-49.1437 224.1568,-70.1134 224.1568,-91 224.1568,-310 224.1568,-310 224.1568,-310 224.1568,-333.9341 221.3564,-340.848 210.1568,-362 208.1595,-365.7722 205.703,-369.4903 203.0544,-373.0222"/>
<polygon fill="#000000" stroke="#000000" points="200.2658,-370.9036 196.6518,-380.863 205.6878,-375.3311 200.2658,-370.9036"/>
</g>
<!-- Ready for Review -->
<g id="node6" class="node">
<title>Ready for Review</title>
<ellipse fill="none" stroke="#000000" cx="79.1568" cy="-164" rx="79.3139" ry="18"/>
<text text-anchor="middle" x="79.1568" y="-159.4" font-family="Times,serif" font-size="14.00" fill="#000000">Ready for Review</text>
</g>
<!-- Scan Clean&#45;&gt;Ready for Review -->
<g id="edge5" class="edge">
<title>Scan Clean&#45;&gt;Ready for Review</title>
<path fill="none" stroke="#000000" d="M93.4602,-218.9551C91.3364,-210.7951 88.7779,-200.9652 86.4155,-191.8887"/>
<polygon fill="#000000" stroke="#000000" points="89.7713,-190.8863 83.8653,-182.0904 82.997,-192.6496 89.7713,-190.8863"/>
</g>
<!-- Under Review -->
<g id="node7" class="node">
<title>Under Review</title>
<ellipse fill="none" stroke="#000000" cx="79.1568" cy="-91" rx="65.9817" ry="18"/>
<text text-anchor="middle" x="79.1568" y="-86.4" font-family="Times,serif" font-size="14.00" fill="#000000">Under Review</text>
</g>
<!-- Ready for Review&#45;&gt;Under Review -->
<g id="edge6" class="edge">
<title>Ready for Review&#45;&gt;Under Review</title>
<path fill="none" stroke="#000000" d="M79.1568,-145.9551C79.1568,-137.8828 79.1568,-128.1764 79.1568,-119.1817"/>
<polygon fill="#000000" stroke="#000000" points="82.6569,-119.0903 79.1568,-109.0904 75.6569,-119.0904 82.6569,-119.0903"/>
</g>
<!-- Under Review&#45;&gt;Rejected -->
<g id="edge7" class="edge">
<title>Under Review&#45;&gt;Rejected</title>
<path fill="none" stroke="#000000" d="M103.9342,-74.2523C119.1723,-63.9525 138.8532,-50.6497 155.2501,-39.5666"/>
<polygon fill="#000000" stroke="#000000" points="157.6476,-42.1706 163.9726,-33.6708 153.7276,-36.3711 157.6476,-42.1706"/>
</g>
<!-- Accepted -->
<g id="node8" class="node">
<title>Accepted</title>
<ellipse fill="none" stroke="#000000" cx="78.1568" cy="-18" rx="46.9149" ry="18"/>
<text text-anchor="middle" x="78.1568" y="-13.4" font-family="Times,serif" font-size="14.00" fill="#000000">Accepted</text>
</g>
<!-- Under Review&#45;&gt;Accepted -->
<g id="edge9" class="edge">
<title>Under Review&#45;&gt;Accepted</title>
<path fill="none" stroke="#000000" d="M78.9096,-72.9551C78.799,-64.8828 78.6661,-55.1764 78.5429,-46.1817"/>
<polygon fill="#000000" stroke="#000000" points="82.0414,-46.0414 78.4046,-36.0904 75.042,-46.1374 82.0414,-46.0414"/>
</g>
</g>
</svg>
